<svg id="Capa_1" enable-background="new 0 0 512 512" height="512" viewBox="0 0 512 512" width="512" xmlns="http://www.w3.org/2000/svg"><g><path d="m467.019 217.065h-3.452v-44.963c0-4.242-1.796-8.285-4.943-11.129s-7.354-4.221-11.571-3.794c-2.388.242-55.886 6.292-82.521 59.886h-132.467c-8.284 0-15 6.716-15 15v234.954c0 24.803 20.179 44.981 44.981 44.981h204.972c24.803 0 44.982-20.179 44.982-44.981v-204.972c0-24.803-20.179-44.982-44.981-44.982z" fill="#9fdafe"/><path d="m467.019 512c24.802 0 44.981-20.179 44.981-44.981v-204.972c0-24.803-20.179-44.981-44.981-44.981h-3.452v-44.963c0-4.242-1.796-8.285-4.943-11.129s-7.354-4.221-11.571-3.794c-2.388.242-55.886 6.292-82.521 59.886v294.934z" fill="#1fcbff"/><path d="m438.162 418.037-60.213-120.425c-2.541-5.082-7.735-8.292-13.417-8.292s-10.875 3.21-13.417 8.292l-60.212 120.425c-3.705 7.41-.701 16.419 6.708 20.125 2.153 1.077 4.442 1.587 6.696 1.587 5.502 0 10.8-3.039 13.428-8.295l10.907-21.814h71.778l10.907 21.814c3.705 7.41 12.715 10.415 20.125 6.708 7.411-3.705 10.414-12.715 6.71-20.125zm-94.519-38.398 20.889-41.778 20.889 41.778z" fill="#364251"/><path d="m377.949 297.612c-2.541-5.082-7.735-8.292-13.416-8.292v48.541l20.889 41.778h-20.889v30h35.889l10.907 21.814c3.705 7.41 12.715 10.415 20.125 6.708 7.41-3.705 10.413-12.715 6.708-20.125z" fill="#232a32"/><path d="m249.954 0h-204.972c-24.803 0-44.982 20.179-44.982 44.982v204.972c0 24.803 20.179 44.981 44.981 44.981h3.467v44.963c0 4.242 1.796 8.285 4.943 11.129 2.77 2.503 6.358 3.871 10.056 3.871.503 0 1.01-.025 1.515-.077 2.388-.242 55.886-6.292 82.521-59.886h102.471c24.803 0 44.981-20.179 44.981-44.981v-204.972c0-24.803-20.179-44.982-44.981-44.982z" fill="#f5f5fc"/><path d="m249.954 0h-102.471v294.935h102.471c24.803 0 44.981-20.179 44.981-44.981v-204.972c0-24.803-20.179-44.982-44.981-44.982z" fill="#dfdff2"/><path d="m207.742 192.68c-.191-.001-18.701-.27-37.115-9.732 10.536-13.492 18.84-31.799 21.239-56.608h15.814c8.284 0 15-6.716 15-15s-6.716-15-15-15h-45.212v-9.085c0-8.284-6.716-15-15-15s-15 6.716-15 15v9.085h-45.213c-8.284 0-15 6.716-15 15s6.716 15 15 15h15.814c2.4 24.809 10.703 43.116 21.239 56.608-18.414 9.462-36.922 9.73-37.054 9.732-8.284 0-15 6.716-15 15s6.716 15 15 15c1.075 0 26.624-.157 52.218-13.807 2.624-1.4 5.304-2.981 7.994-4.74 2.691 1.759 5.37 3.341 7.994 4.74 25.594 13.65 51.143 13.807 52.218 13.807 8.284 0 15.031-6.716 15.031-15s-6.683-15-14.967-15zm-46.061-66.34c-1.856 14.861-6.613 27.356-14.214 37.424-7.601-10.068-12.357-22.563-14.214-37.424z" fill="#364251"/><path d="m382.243 30.245 4.639-4.639c5.858-5.858 5.858-15.355 0-21.213-5.857-5.857-15.355-5.858-21.213 0l-30.106 30.107c-5.858 5.858-5.858 15.355 0 21.213l30.106 30.106c2.929 2.929 6.768 4.394 10.606 4.394s7.678-1.464 10.606-4.394c5.858-5.858 5.858-15.355 0-21.213l-4.306-4.306c55.209 3.271 99.125 49.215 99.125 105.231 0 8.284 6.716 15 15 15s15-6.716 15-15c0-72.673-57.543-132.151-129.457-135.286z" fill="#232a32"/><path d="m176.138 455.987-30.106-30.106c-5.857-5.858-15.355-5.858-21.213 0s-5.858 15.355 0 21.213l4.306 4.306c-55.209-3.27-99.125-49.215-99.125-105.231 0-8.284-6.716-15-15-15s-15 6.716-15 15c0 72.673 57.543 132.151 129.458 135.286l-4.639 4.639c-5.858 5.858-5.858 15.355 0 21.213 2.929 2.929 6.768 4.393 10.606 4.393s7.678-1.464 10.606-4.394l30.106-30.106c5.859-5.858 5.859-15.355.001-21.213z" fill="#364251"/><path d="m207.742 192.68c-.191-.001-18.701-.27-37.115-9.732 10.536-13.492 18.84-31.799 21.239-56.608h15.814c8.284 0 15-6.716 15-15s-6.716-15-15-15h-45.212v-9.085c0-8.279-6.708-14.991-14.985-14.999v54.084h14.198c-1.855 14.851-6.607 27.339-14.198 37.403v40.4c2.686 1.755 5.36 3.333 7.979 4.73 25.594 13.65 51.143 13.807 52.218 13.807 8.284 0 15.031-6.716 15.031-15s-6.685-15-14.969-15z" fill="#232a32"/></g></svg>